<svg width="465" height="258" viewBox="0 0 465 258" fill="none" xmlns="http://www.w3.org/2000/svg">
<path d="M6 219.5V219.5C27.4062 240.906 61.9866 241.308 83.8847 220.406L87.2348 217.208C107.143 198.204 110.823 167.77 96.0164 144.569L75.2397 112.013C64.3451 94.9424 61.8161 73.8398 68.3682 54.6779V54.6779C78.0167 26.4606 104.538 7.5 134.36 7.5H139" stroke="white" stroke-width="15"/>
<path d="M272 219.5V219.5C250.594 240.906 216.013 241.308 194.115 220.406L190.765 217.208C170.857 198.204 167.177 167.77 181.984 144.569L202.76 112.013C213.655 94.9424 216.184 73.8398 209.632 54.6779V54.6779C199.983 26.4606 173.462 7.5 143.64 7.5H139" stroke="white" stroke-width="15"/>
<path d="M193 219.5V219.5C214.406 240.906 248.987 241.308 270.885 220.406L274.235 217.208C294.143 198.204 297.823 167.77 283.016 144.569L262.24 112.013C251.345 94.9424 248.816 73.8398 255.368 54.6779V54.6779C265.017 26.4606 291.538 7.5 321.36 7.5H326" stroke="white" stroke-width="15"/>
<path d="M459 219.5V219.5C437.594 240.906 403.013 241.308 381.115 220.406L377.765 217.208C357.857 198.204 354.177 167.77 368.984 144.569L389.76 112.013C400.655 94.9424 403.184 73.8398 396.632 54.6779V54.6779C386.983 26.4606 360.462 7.5 330.64 7.5H326" stroke="white" stroke-width="15"/>
</svg>
